name ./resultDataOpenSim/trcMotMarkerGrf/sub10/grf-03-01.mot
datacolumns 19
datarows 17
range 1.44400000 1.50800000
endheader

                time	     ground_force_vx	     ground_force_vy	     ground_force_vz	     ground_force_px	     ground_force_py	     ground_force_pz	   l_ground_force_vx	   l_ground_force_vy	   l_ground_force_vz	   l_ground_force_px	   l_ground_force_py	   l_ground_force_pz	     ground_torque_x	     ground_torque_y	     ground_torque_z	   l_ground_torque_x	   l_ground_torque_y	   l_ground_torque_z	
          1.44400000	         -9.16178407	        393.75258543	         -5.45718184	          0.75349187	          0.00000000	         -0.06095697	          0.00000000	          0.00000000	          0.00000000	          0.00000000	          0.00000000	          0.00000000	          0.00000000	          2.98322235	          0.00000000	          0.00000000	          0.00000000	          0.00000000	
          1.44800000	        -10.51426006	        398.59549677	         -4.87341985	          0.75576331	          0.00000000	         -0.06128191	          0.00000000	          0.00000000	          0.00000000	          0.00000000	          0.00000000	          0.00000000	          0.00000000	          2.96978538	          0.00000000	          0.00000000	          0.00000000	          0.00000000	
          1.45200000	        -11.59030694	        403.85004628	         -4.90908388	          0.75781565	          0.00000000	         -0.06156213	          0.00000000	          0.00000000	          0.00000000	          0.00000000	          0.00000000	          0.00000000	          0.00000000	          3.01766607	          0.00000000	          0.00000000	          0.00000000	          0.00000000	
          1.45600000	        -11.87963141	        409.49187396	         -5.56410512	          0.75958339	          0.00000000	         -0.06179237	          0.00000000	          0.00000000	          0.00000000	          0.00000000	          0.00000000	          0.00000000	          0.00000000	          3.14385383	          0.00000000	          0.00000000	          0.00000000	          0.00000000	
          1.46000000	        -11.07889933	        415.49743761	         -6.75357469	          0.76104188	          0.00000000	         -0.06197719	          0.00000000	          0.00000000	          0.00000000	          0.00000000	          0.00000000	          0.00000000	          0.00000000	          3.34838295	          0.00000000	          0.00000000	          0.00000000	          0.00000000	
          1.46400000	         -9.16581128	        421.83108809	         -8.32867437	          0.76221490	          0.00000000	         -0.06212683	          0.00000000	          0.00000000	          0.00000000	          0.00000000	          0.00000000	          0.00000000	          0.00000000	          3.61477005	          0.00000000	          0.00000000	          0.00000000	          0.00000000	
          1.46800000	         -6.39606945	        428.47510359	        -10.10551288	          0.76318109	          0.00000000	         -0.06225067	          0.00000000	          0.00000000	          0.00000000	          0.00000000	          0.00000000	          0.00000000	          0.00000000	          3.91409432	          0.00000000	          0.00000000	          0.00000000	          0.00000000	
          1.47200000	         -3.23360334	        435.45361447	        -11.89207908	          0.76404871	          0.00000000	         -0.06235782	          0.00000000	          0.00000000	          0.00000000	          0.00000000	          0.00000000	          0.00000000	          0.00000000	          4.21138988	          0.00000000	          0.00000000	          0.00000000	          0.00000000	
          1.47600000	         -0.22932676	        442.81514912	        -13.51373410	          0.76493797	          0.00000000	         -0.06245948	          0.00000000	          0.00000000	          0.00000000	          0.00000000	          0.00000000	          0.00000000	          0.00000000	          4.47276243	          0.00000000	          0.00000000	          0.00000000	          0.00000000	
          1.48000000	          2.12878144	        450.59533154	        -14.83907345	          0.76594899	          0.00000000	         -0.06256944	          0.00000000	          0.00000000	          0.00000000	          0.00000000	          0.00000000	          0.00000000	          0.00000000	          4.67191620	          0.00000000	          0.00000000	          0.00000000	          0.00000000	
          1.48400000	          3.54832170	        458.79765422	        -15.79842773	          0.76712102	          0.00000000	         -0.06269898	          0.00000000	          0.00000000	          0.00000000	          0.00000000	          0.00000000	          0.00000000	          0.00000000	          4.79515484	          0.00000000	          0.00000000	          0.00000000	          0.00000000	
          1.48800000	          4.00002198	        467.40955620	        -16.38811938	          0.76843593	          0.00000000	         -0.06285816	          0.00000000	          0.00000000	          0.00000000	          0.00000000	          0.00000000	          0.00000000	          0.00000000	          4.84412529	          0.00000000	          0.00000000	          0.00000000	          0.00000000	
          1.49200000	          3.70327357	        476.43498179	        -16.66173045	          0.76985093	          0.00000000	         -0.06305259	          0.00000000	          0.00000000	          0.00000000	          0.00000000	          0.00000000	          0.00000000	          0.00000000	          4.83566640	          0.00000000	          0.00000000	          0.00000000	          0.00000000	
          1.49600000	          3.04977680	        485.90033599	        -16.71525072	          0.77132983	          0.00000000	         -0.06328185	          0.00000000	          0.00000000	          0.00000000	          0.00000000	          0.00000000	          0.00000000	          0.00000000	          4.79840119	          0.00000000	          0.00000000	          0.00000000	          0.00000000	
          1.50000000	          2.49695197	        495.81976756	        -16.67227976	          0.77283892	          0.00000000	         -0.06353473	          0.00000000	          0.00000000	          0.00000000	          0.00000000	          0.00000000	          0.00000000	          0.00000000	          4.76639176	          0.00000000	          0.00000000	          0.00000000	          0.00000000	
          1.50400000	          2.45153193	        506.15530902	        -16.66899328	          0.77432147	          0.00000000	         -0.06380005	          0.00000000	          0.00000000	          0.00000000	          0.00000000	          0.00000000	          0.00000000	          0.00000000	          4.77117502	          0.00000000	          0.00000000	          0.00000000	          0.00000000	
          1.50800000	          3.16458990	        516.81280834	        -16.83532923	          0.77573553	          0.00000000	         -0.06407668	          0.00000000	          0.00000000	          0.00000000	          0.00000000	          0.00000000	          0.00000000	          0.00000000	          4.83437275	          0.00000000	          0.00000000	          0.00000000	          0.00000000	
